<svg xmlns="http://www.w3.org/2000/svg" viewBox="0 0 181.58 28.42"><defs><style>.e{fill:#00e476;}</style></defs><g id="a"></g><g id="b"><g id="c"><g id="d"><g><path class="e" d="M91.43,.56h-7.14l-15.15,27.23h6.75l2.97-5.45h10.07l.99,5.45h6.71L91.43,.56Zm-9.27,16.34l4.22-7.67,1.35,7.67h-5.57Z"></path><polygon class="e" points="25.28 .56 16.32 17.63 13.3 .56 4.79 .56 0 27.79 6.65 27.79 9.54 11.6 12.37 27.79 16.99 27.79 25.5 11.6 22.62 27.79 29.31 27.79 34.1 .56 25.28 .56"></polygon><path class="e" d="M112.16,18.71h4.24c-.77,2.03-2.8,3.48-5.37,3.48-3.43,0-5.51-2.57-5.51-6.41,0-5.51,2.84-9.48,7.18-9.48,2.48,0,4.06,1.31,4.47,3.34h7.13c-.4-5.56-4.48-9.64-11.39-9.64-8.52,0-14.61,7.17-14.61,15.91,0,7.35,4.84,12.51,12.51,12.51,6.86,0,11.92-4.66,13.04-11.25l.67-3.9h-11.41l-.95,5.45Z"></path><path class="e" d="M140.37,.59c-8.01,0-14.27,6.57-14.27,15.54,0,7.14,4.64,12.22,12.08,12.22,8.01,0,14.27-6.57,14.27-15.54,0-7.14-4.64-12.22-12.08-12.22Zm-1.97,21.59c-3.2,0-5.21-2.58-5.21-6.22,0-5.69,3.02-9.2,6.96-9.2,3.2,0,5.21,2.58,5.21,6.22,0,5.69-3.06,9.2-6.96,9.2Z"></path><polygon class="e" points="174.71 .56 171.96 16.04 164.02 .56 157.63 .56 152.84 27.79 159.72 27.79 162.6 11.38 171.29 27.79 176.79 27.79 181.58 .56 174.71 .56"></polygon><path class="e" d="M33.84,27.79h7.05l2.64-15.02c-3.57-.15-6.43-.29-6.99-.31l-2.7,15.34Z"></path><polygon class="e" points="38.57 .56 36.55 12.07 43.98 9.91 45.62 .56 38.57 .56"></polygon><path class="e" d="M70.7,8.54c0-5.06-3.33-7.98-8.69-7.98h-11.75l-1.41,8.01,8.17-2.37s3.51-1.11,5.05-.56c4.13,1.5,2.65,6.76-1.79,7.26-1.54,.17-6.89,.04-12.16-.14l-2.64,15.03h7.03l1.61-9.08h2.73l4.38,9.08h7.49l-4.92-9.76c4.04-1.37,6.92-4.61,6.92-9.49Z"></path></g></g></g></g></svg>